<svg xmlns="http://www.w3.org/2000/svg" viewBox="0 0 229.12 78.02"><defs><style>.cls-1{fill:#ce5f2d;}.cls-2{fill:#50232e;}.cls-2,.cls-5{stroke:#fff;stroke-miterlimit:10;stroke-width:0.45px;}.cls-3{fill:#fbe083;}.cls-4{fill:#a1cca5;}.cls-5{fill:none;}</style></defs><title>logo_1</title><g id="Capa_2" data-name="Capa 2"><g id="Capa_1-2" data-name="Capa 1"><path class="cls-1" d="M98.72,44.39l-1.51,5.55H92.14L98.75,28.3h6.39l6.74,21.64h-5.27l-1.67-5.55Zm5.49-3.66-1.35-4.59c-.35-1.28-.74-2.92-1.06-4.17h-.1c-.29,1.28-.64,2.92-1,4.17l-1.32,4.59Z"/><path class="cls-1" d="M129.83,49.33a14.35,14.35,0,0,1-5.52.93c-7.48,0-11.33-4.69-11.33-10.85C113,32.06,118.24,28,124.79,28a13.45,13.45,0,0,1,5.33.93l-1,3.88A10.31,10.31,0,0,0,125,32c-3.85,0-6.87,2.34-6.87,7.16,0,4.3,2.57,7,6.9,7a11.63,11.63,0,0,0,4.11-.71Z"/><path d="M132.94,28.62a7.71,7.71,0,0,1,2.73-.42,6.51,6.51,0,0,1,4.49,1.44c1.57,1.32,3,4.08,3,8.8,0,5.3-1.25,7.74-2.34,9.12A6.9,6.9,0,0,1,135.25,50a10.31,10.31,0,0,1-2.31-.19Zm1.38,20.13a7.33,7.33,0,0,0,1.06.06c3.15,0,6.32-2,6.32-10.18,0-6.07-2-9.25-6-9.25a8.77,8.77,0,0,0-1.35.13Z"/><path d="M147.19,41.66c0,6.2,2.15,7.26,3.88,7.26a4.13,4.13,0,0,0,2.31-.61l.32,1.06a5.32,5.32,0,0,1-2.89.77c-3.37,0-5-3.18-5-7.83,0-4.88,1.77-8,4.59-8,3,0,3.88,3.76,3.88,6.49v.9Zm5.59-1.12c.06-3.79-1.51-5-2.63-5-1.8,0-2.76,2.57-2.92,5Z"/><path d="M156.47,48.11a4.2,4.2,0,0,0,2.31.8,2.56,2.56,0,0,0,2.66-2.79c0-1.38-.42-2.41-2.09-3.6s-3.11-2.38-3.11-4.37A3.77,3.77,0,0,1,160,34.27a4.11,4.11,0,0,1,2.5.83l-.61,1.12a3.1,3.1,0,0,0-2-.74,2.27,2.27,0,0,0-2.28,2.38c0,1.25.42,2,2,3.11s3.24,2.34,3.24,4.75a4,4,0,0,1-4.14,4.4,4.51,4.51,0,0,1-2.76-.9Z"/><path d="M172.42,46.47a29.88,29.88,0,0,0,.13,3.47h-1.28l-.13-1.7H171a3.17,3.17,0,0,1-2.89,2c-1.89,0-3.4-1.61-3.4-4.24,0-3.72,2.79-5.46,6.29-5.49v-.58c0-2.63-.42-4.4-2.66-4.4a3.8,3.8,0,0,0-2.18.74l-.39-1.06a4.86,4.86,0,0,1,2.86-.9c2.09,0,3.76,1.22,3.76,4.91ZM171,41.66c-1.19,0-4.85.1-4.85,4.21,0,2.31,1.12,3.11,2.15,3.11,1.32,0,2.34-1.06,2.63-2.92a5.54,5.54,0,0,0,.06-1Z"/><path d="M176.18,38.09c0-1.16-.1-2.6-.13-3.56h1.32l.06,2.5h.06a3.78,3.78,0,0,1,3.34-2.76h.29v1.51h-.26c-2,0-3.15,2-3.27,3.85,0,.45,0,.87,0,1.32v9h-1.38Z"/><path d="M183.21,38.09c0-1.16-.1-2.6-.13-3.56h1.32l.06,2.5h.06a3.78,3.78,0,0,1,3.34-2.76h.29v1.51h-.26c-2,0-3.15,2-3.27,3.85,0,.45,0,.87,0,1.32v9h-1.38Z"/><path d="M193.32,50.2c-2.18,0-4.46-2.28-4.46-8s2.28-8,4.69-8c2.18,0,4.43,2.28,4.43,8s-2.28,8-4.62,8Zm.13-1.22c2.6,0,3.08-4.24,3.08-6.74s-.48-6.74-3.15-6.74-3.08,4.24-3.08,6.74.48,6.74,3.11,6.74Z"/><path d="M201,27.72h1.38V49.94H201Z"/><path d="M206.48,27.72h1.38V49.94h-1.38Z"/><path d="M215.66,50.2c-2.18,0-4.46-2.28-4.46-8s2.28-8,4.69-8c2.18,0,4.43,2.28,4.43,8s-2.28,8-4.62,8Zm.13-1.22c2.6,0,3.08-4.24,3.08-6.74s-.48-6.74-3.15-6.74-3.08,4.24-3.08,6.74.48,6.74,3.11,6.74Z"/><path d="M222.73,48.11a4.2,4.2,0,0,0,2.31.8,2.56,2.56,0,0,0,2.66-2.79c0-1.38-.42-2.41-2.09-3.6s-3.11-2.38-3.11-4.37a3.77,3.77,0,0,1,3.76-3.88,4.11,4.11,0,0,1,2.5.83l-.61,1.12a3.1,3.1,0,0,0-2-.74,2.27,2.27,0,0,0-2.28,2.38c0,1.25.42,2,2,3.11s3.24,2.34,3.24,4.75a4,4,0,0,1-4.14,4.4,4.51,4.51,0,0,1-2.76-.9Z"/><path class="cls-2" d="M98.09,70.35C91.36,59.65,85.87,46.59,73.81,30c.89,15.73.25,33-2,43.18A250.54,250.54,0,0,0,98.09,70.35Z"/><path class="cls-3" d="M0,72.37a505,505,0,0,0,61.28,1.37c-13.71-5.9-34.43-17.85-48.15-29C7.53,55.72,4.94,63.77,0,72.37Z"/><path class="cls-4" d="M46.07,0c-9.23,6.09-22.63,24.91-30.8,40.6A357.82,357.82,0,0,1,59,11.69,77.3,77.3,0,0,0,46.07,0Z"/><path class="cls-1" d="M72.84,73.16c2.33-10.21,3-27.41,2.1-43.09-.54-9.39-1.64-18.22-3.29-24.54-3.48,1.81-7.3,3.84-11.48,6.19a376.16,376.16,0,0,0-43.9,28.89q-1.94,1.5-3.72,2.93l1.54,1.22c14,11.21,34.7,23.06,48.26,28.94,3.31,1.5,6.33,2.77,9.16,4A35,35,0,0,0,72.84,73.16Z"/><path class="cls-5" d="M72.84,73.16c2.33-10.21,3-27.41,2.1-43.09-.54-9.39-1.64-18.22-3.29-24.54-3.48,1.81-7.3,3.84-11.48,6.19a376.16,376.16,0,0,0-43.9,28.89q-1.94,1.5-3.72,2.93l1.54,1.22c14,11.21,34.7,23.06,48.26,28.94,3.31,1.5,6.33,2.77,9.16,4A35,35,0,0,0,72.84,73.16Z"/></g></g></svg>